STARTFONT 2.3
FONT -FontForge-Monoton-Book-R-Normal--9-90-72-72-P-60-ISO10646-1
SIZE 9 72 72  4
FONTBOUNDINGBOX 18 15 -2 -4
COMMENT "Generated by fontforge, http://fontforge.sourceforge.net"
COMMENT "Copyright (c) 2011 by vernon adams. All rights reserved."
STARTPROPERTIES 41
FOUNDRY "FontForge"
FAMILY_NAME "Monoton"
WEIGHT_NAME "Book"
SLANT "R"
SETWIDTH_NAME "Normal"
ADD_STYLE_NAME ""
PIXEL_SIZE 9
POINT_SIZE 90
RESOLUTION_X 72
RESOLUTION_Y 72
SPACING "P"
AVERAGE_WIDTH 60
CHARSET_REGISTRY "ISO10646"
CHARSET_ENCODING "1"
FONTNAME_REGISTRY ""
CHARSET_COLLECTIONS "ISO8859-2 ISO8859-9 ISO8859-4 ISO10646-1"
BITS_PER_PIXEL 4
FONT_NAME "Monoton-Regular"
FACE_NAME "Monoton"
COPYRIGHT "Copyright (c) 2011 by vernon adams. All rights reserved."
FONT_VERSION "1.000"
FONT_ASCENT 7
FONT_DESCENT 2
UNDERLINE_POSITION 0
UNDERLINE_THICKNESS 1
X_HEIGHT 6
CAP_HEIGHT 7
DEFAULT_CHAR 1
RAW_ASCENT 799
RAW_DESCENT 200
NORM_SPACE 1
RELATIVE_WEIGHT 40
RELATIVE_SETWIDTH 50
SUPERSCRIPT_X 0
SUPERSCRIPT_Y 3
SUPERSCRIPT_SIZE 5
SUBSCRIPT_X 0
SUBSCRIPT_Y 0
SUBSCRIPT_SIZE 5
AVG_LOWERCASE_WIDTH 65
AVG_UPPERCASE_WIDTH 70
ENDPROPERTIES
CHARS 372
STARTCHAR glyph1.dup1
ENCODING 0
SWIDTH 108 0
DWIDTH 1 0
BBX 1 1 0 0
BITMAP
00
ENDCHAR
STARTCHAR uni0002
ENCODING 2
SWIDTH 108 0
DWIDTH 1 0
BBX 1 1 0 0
BITMAP
00
ENDCHAR
STARTCHAR uni0009
ENCODING 9
SWIDTH 108 0
DWIDTH 1 0
BBX 1 1 0 0
BITMAP
00
ENDCHAR
STARTCHAR uni000A
ENCODING 10
SWIDTH 108 0
DWIDTH 1 0
BBX 1 1 0 0
BITMAP
00
ENDCHAR
STARTCHAR uni000D
ENCODING 13
SWIDTH 108 0
DWIDTH 1 0
BBX 1 1 0 0
BITMAP
00
ENDCHAR
STARTCHAR space
ENCODING 32
SWIDTH 108 0
DWIDTH 1 0
BBX 1 1 0 0
BITMAP
00
ENDCHAR
STARTCHAR exclam
ENCODING 33
SWIDTH 336 0
DWIDTH 3 0
BBX 3 9 0 -1
BITMAP
1310
5A50
5A50
5A50
5A50
5A50
3530
3640
3530
ENDCHAR
STARTCHAR quotedbl
ENCODING 34
SWIDTH 538 0
DWIDTH 5 0
BBX 5 4 0 4
BITMAP
130210
592850
592850
351530
ENDCHAR
STARTCHAR numbersign
ENCODING 35
SWIDTH 1014 0
DWIDTH 9 0
BBX 9 9 0 -1
BITMAP
0005403500
0138628730
0486877750
0469476630
0087059000
2587487400
4767677400
3694765300
0440350000
ENDCHAR
STARTCHAR dollar
ENCODING 36
SWIDTH 686 0
DWIDTH 6 0
BBX 6 11 0 -2
BITMAP
003300
023450
378976
596540
597650
377875
024678
159887
486683
011110
001200
ENDCHAR
STARTCHAR percent
ENCODING 37
SWIDTH 1504 0
DWIDTH 14 0
BBX 14 9 0 -1
BITMAP
02451002100000
38878146500000
58677458200000
59677478179840
47988395686781
04653464967954
00000591789772
00000870386750
00000630014200
ENDCHAR
STARTCHAR ampersand
ENCODING 38
SWIDTH 1029 0
DWIDTH 9 0
BBX 9 8 0 0
BITMAP
0034411200
1775555900
5889955900
5965575940
5797785960
5A76676950
5766648750
0699934870
ENDCHAR
STARTCHAR quotesingle
ENCODING 39
SWIDTH 257 0
DWIDTH 2 0
BBX 2 4 0 4
BITMAP
13
59
59
35
ENDCHAR
STARTCHAR parenleft
ENCODING 40
SWIDTH 410 0
DWIDTH 4 0
BBX 4 9 0 -1
BITMAP
0252
2884
5862
5950
5950
5950
5862
2784
0252
ENDCHAR
STARTCHAR parenright
ENCODING 41
SWIDTH 408 0
DWIDTH 4 0
BBX 4 9 0 -1
BITMAP
3400
7770
3773
0865
0865
0865
3873
7770
3510
ENDCHAR
STARTCHAR asterisk
ENCODING 42
SWIDTH 664 0
DWIDTH 6 0
BBX 6 6 0 1
BITMAP
002200
057750
578775
289982
387783
027720
ENDCHAR
STARTCHAR plus
ENCODING 43
SWIDTH 601 0
DWIDTH 5 0
BBX 6 5 0 1
BITMAP
034600
386950
596971
166820
022300
ENDCHAR
STARTCHAR comma
ENCODING 44
SWIDTH 252 0
DWIDTH 2 0
BBX 2 4 0 -2
BITMAP
35
39
47
21
ENDCHAR
STARTCHAR hyphen
ENCODING 45
SWIDTH 473 0
DWIDTH 4 0
BBX 4 3 0 2
BITMAP
3554
4776
1222
ENDCHAR
STARTCHAR period
ENCODING 46
SWIDTH 255 0
DWIDTH 2 0
BBX 2 2 0 0
BITMAP
34
69
ENDCHAR
STARTCHAR slash
ENCODING 47
SWIDTH 447 0
DWIDTH 4 0
BBX 4 9 0 -1
BITMAP
0022
0095
0465
0582
0690
0950
4650
5820
5800
ENDCHAR
STARTCHAR zero
ENCODING 48
SWIDTH 843 0
DWIDTH 8 0
BBX 8 9 0 -1
BITMAP
00455200
07798830
48868790
69601973
69500964
59703782
38798880
05967820
00143000
ENDCHAR
STARTCHAR one
ENCODING 49
SWIDTH 426 0
DWIDTH 4 0
BBX 4 8 0 0
BITMAP
3442
4552
39A5
0785
0785
0785
0785
0785
ENDCHAR
STARTCHAR two
ENCODING 50
SWIDTH 583 0
DWIDTH 5 0
BBX 5 8 0 0
BITMAP
455400
499750
366690
005880
038840
188600
467530
699960
ENDCHAR
STARTCHAR three
ENCODING 51
SWIDTH 612 0
DWIDTH 6 0
BBX 6 9 0 -1
BITMAP
454400
499760
365882
046872
059780
035872
499781
565850
144200
ENDCHAR
STARTCHAR four
ENCODING 52
SWIDTH 622 0
DWIDTH 6 0
BBX 6 8 0 0
BITMAP
002210
028750
057810
197620
578380
688883
466672
000180
ENDCHAR
STARTCHAR five
ENCODING 53
SWIDTH 691 0
DWIDTH 6 0
BBX 6 9 0 -1
BITMAP
244441
355552
6A5441
586751
586776
234769
159877
486673
014300
ENDCHAR
STARTCHAR six
ENCODING 54
SWIDTH 781 0
DWIDTH 7 0
BBX 7 9 0 -1
BITMAP
00455200
18798710
58865100
59676400
59777740
59657870
57898850
06856710
00243000
ENDCHAR
STARTCHAR seven
ENCODING 55
SWIDTH 631 0
DWIDTH 6 0
BBX 6 8 0 0
BITMAP
344221
455964
346691
005870
006950
009640
037910
057800
ENDCHAR
STARTCHAR eight
ENCODING 56
SWIDTH 808 0
DWIDTH 7 0
BBX 7 9 0 -1
BITMAP
02554300
388A8750
58656780
58866790
48689760
59756690
58899780
18665840
00354100
ENDCHAR
STARTCHAR nine
ENCODING 57
SWIDTH 782 0
DWIDTH 7 0
BBX 7 9 0 -1
BITMAP
01554100
37797810
58758850
59757860
37797860
02456960
02897750
17758600
00242000
ENDCHAR
STARTCHAR colon
ENCODING 58
SWIDTH 262 0
DWIDTH 2 0
BBX 2 5 0 1
BITMAP
35
46
23
58
46
ENDCHAR
STARTCHAR semicolon
ENCODING 59
SWIDTH 261 0
DWIDTH 2 0
BBX 2 6 0 0
BITMAP
35
46
23
48
29
66
ENDCHAR
STARTCHAR less
ENCODING 60
SWIDTH 670 0
DWIDTH 6 0
BBX 6 7 0 0
BITMAP
000155
046876
669783
487730
677885
015775
000034
ENDCHAR
STARTCHAR equal
ENCODING 61
SWIDTH 473 0
DWIDTH 4 0
BBX 4 5 0 1
BITMAP
3554
4776
2333
5887
4666
ENDCHAR
STARTCHAR greater
ENCODING 62
SWIDTH 670 0
DWIDTH 6 0
BBX 6 7 0 0
BITMAP
552000
578640
387777
027977
588784
577510
330000
ENDCHAR
STARTCHAR question
ENCODING 63
SWIDTH 693 0
DWIDTH 6 0
BBX 6 8 0 0
BITMAP
045530
579874
045778
054679
097975
096440
164000
2A7000
ENDCHAR
STARTCHAR at
ENCODING 64
SWIDTH 1076 0
DWIDTH 10 0
BBX 10 9 0 -1
BITMAP
0036875200
0578568830
3774554780
5847988564
5956558475
5857787765
2875438881
0487A90200
0025550000
ENDCHAR
STARTCHAR A
ENCODING 65
SWIDTH 936 0
DWIDTH 8 0
BBX 9 8 0 0
BITMAP
0003210000
0047860000
0068782000
0186875000
0578578000
0877587400
4787879600
6962257810
ENDCHAR
STARTCHAR B
ENCODING 66
SWIDTH 862 0
DWIDTH 8 0
BBX 8 8 0 0
BITMAP
24444200
57555760
59899774
59655765
59677873
59666875
59666773
59799840
ENDCHAR
STARTCHAR C
ENCODING 67
SWIDTH 852 0
DWIDTH 8 0
BBX 8 9 0 -1
BITMAP
00355400
05889771
38875861
59600200
69500000
58720410
28789772
03876860
00034100
ENDCHAR
STARTCHAR D
ENCODING 68
SWIDTH 886 0
DWIDTH 8 0
BBX 8 8 0 0
BITMAP
24444100
57556850
59899783
59500785
595005A6
59634775
58666881
69999720
ENDCHAR
STARTCHAR E
ENCODING 69
SWIDTH 706 0
DWIDTH 6 0
BBX 6 8 0 0
BITMAP
133444
597555
596444
597520
597720
596210
596555
598999
ENDCHAR
STARTCHAR F
ENCODING 70
SWIDTH 683 0
DWIDTH 6 0
BBX 6 8 0 0
BITMAP
133443
597554
596444
595221
598885
596553
595000
595000
ENDCHAR
STARTCHAR G
ENCODING 71
SWIDTH 908 0
DWIDTH 8 0
BBX 8 9 0 -1
BITMAP
00355400
05889771
38875861
59600200
68500466
58710678
28789A78
03866978
00044200
ENDCHAR
STARTCHAR H
ENCODING 72
SWIDTH 901 0
DWIDTH 8 0
BBX 8 8 0 0
BITMAP
13100121
59500595
59500595
59655795
59777895
59522695
59500595
59500595
ENDCHAR
STARTCHAR I
ENCODING 73
SWIDTH 338 0
DWIDTH 3 0
BBX 3 8 0 0
BITMAP
1310
5950
5950
5950
5950
5950
5950
5950
ENDCHAR
STARTCHAR J
ENCODING 74
SWIDTH 434 0
DWIDTH 4 0
BBX 4 9 0 -1
BITMAP
0221
0685
0685
0685
0685
0685
7874
5860
4200
ENDCHAR
STARTCHAR K
ENCODING 75
SWIDTH 815 0
DWIDTH 7 0
BBX 7 8 0 0
BITMAP
13101230
59506860
59537730
59568600
59696500
59568700
59528740
59505880
ENDCHAR
STARTCHAR L
ENCODING 76
SWIDTH 604 0
DWIDTH 5 0
BBX 6 8 0 0
BITMAP
131000
595000
595000
595000
595000
595000
596551
598991
ENDCHAR
STARTCHAR M
ENCODING 77
SWIDTH 920 0
DWIDTH 8 0
BBX 8 8 0 0
BITMAP
22100032
78600479
58820787
58865778
59687868
59687968
59511568
59500568
ENDCHAR
STARTCHAR N
ENCODING 78
SWIDTH 877 0
DWIDTH 8 0
BBX 8 8 0 0
BITMAP
22300221
78750685
58782685
58886685
59677785
59568875
59528775
59505786
ENDCHAR
STARTCHAR O
ENCODING 79
SWIDTH 933 0
DWIDTH 8 0
BBX 9 9 0 -1
BITMAP
0035540000
0588A78100
3887588600
5960047910
6950028820
5872067900
2878988500
0387695000
0003410000
ENDCHAR
STARTCHAR P
ENCODING 80
SWIDTH 850 0
DWIDTH 8 0
BBX 8 8 0 0
BITMAP
24444200
57555860
59899773
59511965
59688782
59688940
59522000
59500000
ENDCHAR
STARTCHAR Q
ENCODING 81
SWIDTH 937 0
DWIDTH 8 0
BBX 9 9 0 -1
BITMAP
0035540000
0588A78100
3887588600
5960047910
6950048820
5872787900
2878988500
0387697200
0003436100
ENDCHAR
STARTCHAR R
ENCODING 82
SWIDTH 843 0
DWIDTH 8 0
BBX 8 8 0 0
BITMAP
24444200
57555850
59899772
59544954
59665781
5979A950
59508750
59505960
ENDCHAR
STARTCHAR S
ENCODING 83
SWIDTH 682 0
DWIDTH 6 0
BBX 6 9 0 -1
BITMAP
035551
378976
596540
597650
377875
024687
159886
486683
014410
ENDCHAR
STARTCHAR T
ENCODING 84
SWIDTH 591 0
DWIDTH 5 0
BBX 5 8 0 0
BITMAP
344440
455550
38A940
058600
058600
058600
058600
058600
ENDCHAR
STARTCHAR U
ENCODING 85
SWIDTH 905 0
DWIDTH 8 0
BBX 8 9 0 -1
BITMAP
13100122
5A500586
5A500586
5A500586
5A500586
57711685
28899773
04866840
00044100
ENDCHAR
STARTCHAR V
ENCODING 86
SWIDTH 940 0
DWIDTH 8 0
BBX 9 8 0 0
BITMAP
2210012210
5880057910
2874078500
0686387300
0479687000
0096965000
0058791000
0028850000
ENDCHAR
STARTCHAR W
ENCODING 87
SWIDTH 1161 0
DWIDTH 10 0
BBX 11 8 0 0
BITMAP
221032202210
596378646910
569579758700
187798888500
07796A796400
058697A69000
046875796000
019852975000
ENDCHAR
STARTCHAR X
ENCODING 88
SWIDTH 876 0
DWIDTH 8 0
BBX 8 8 0 0
BITMAP
23201221
47836782
07878750
02778700
00678500
02877830
06876870
47743875
ENDCHAR
STARTCHAR Y
ENCODING 89
SWIDTH 789 0
DWIDTH 7 0
BBX 7 8 0 0
BITMAP
22101220
58706850
18758820
05878600
01787200
00786000
00595000
00595000
ENDCHAR
STARTCHAR Z
ENCODING 90
SWIDTH 854 0
DWIDTH 8 0
BBX 8 8 0 0
BITMAP
34444441
45555573
69977872
00277772
04788500
47786331
68656662
68999993
ENDCHAR
STARTCHAR bracketleft
ENCODING 91
SWIDTH 320 0
DWIDTH 3 0
BBX 3 9 0 -1
BITMAP
4530
5960
5A00
5A00
5A00
5A00
5A00
5960
4530
ENDCHAR
STARTCHAR backslash
ENCODING 92
SWIDTH 448 0
DWIDTH 4 0
BBX 4 9 0 -1
BITMAP
2200
5910
5640
2850
0870
0591
0564
0285
0076
ENDCHAR
STARTCHAR bracketright
ENCODING 93
SWIDTH 319 0
DWIDTH 3 0
BBX 3 9 0 -1
BITMAP
3540
7850
2850
2850
2850
2850
2850
7850
4540
ENDCHAR
STARTCHAR asciicircum
ENCODING 94
SWIDTH 475 0
DWIDTH 4 0
BBX 4 5 0 2
BITMAP
0220
0691
2865
5547
1101
ENDCHAR
STARTCHAR underscore
ENCODING 95
SWIDTH 511 0
DWIDTH 5 0
BBX 5 2 0 -2
BITMAP
699920
355510
ENDCHAR
STARTCHAR grave
ENCODING 96
SWIDTH 472 0
DWIDTH 4 0
BBX 4 3 0 6
BITMAP
1400
3774
0042
ENDCHAR
STARTCHAR a
ENCODING 97
SWIDTH 832 0
DWIDTH 7 0
BBX 8 8 0 -1
BITMAP
00454100
07686720
57878770
59503791
69602882
48797882
04977882
00021000
ENDCHAR
STARTCHAR b
ENCODING 98
SWIDTH 720 0
DWIDTH 6 0
BBX 7 7 0 0
BITMAP
35554000
57665400
59446220
59799300
59456010
59456010
59001400
ENDCHAR
STARTCHAR c
ENCODING 99
SWIDTH 736 0
DWIDTH 7 0
BBX 7 8 0 -1
BITMAP
00555200
07798820
57857300
69500000
69602000
37798610
05867820
00143000
ENDCHAR
STARTCHAR d
ENCODING 100
SWIDTH 833 0
DWIDTH 8 0
BBX 8 7 0 0
BITMAP
35554000
57666830
59898780
59503782
59636781
58666860
69998510
ENDCHAR
STARTCHAR e
ENCODING 101
SWIDTH 666 0
DWIDTH 6 0
BBX 6 7 0 0
BITMAP
233553
597664
596442
598994
596552
596553
598996
ENDCHAR
STARTCHAR f
ENCODING 102
SWIDTH 625 0
DWIDTH 6 0
BBX 6 7 0 0
BITMAP
233552
597662
596441
597771
597771
595000
595000
ENDCHAR
STARTCHAR g
ENCODING 103
SWIDTH 827 0
DWIDTH 7 0
BBX 8 8 0 -1
BITMAP
00555200
07798820
57857300
69500120
69603781
37799781
05868781
00143000
ENDCHAR
STARTCHAR h
ENCODING 104
SWIDTH 830 0
DWIDTH 7 0
BBX 8 7 0 0
BITMAP
23201230
59502791
59524791
59889791
59656791
59502791
59502791
ENDCHAR
STARTCHAR i
ENCODING 105
SWIDTH 337 0
DWIDTH 3 0
BBX 3 7 0 0
BITMAP
2320
5950
5950
5950
5950
5950
5950
ENDCHAR
STARTCHAR j
ENCODING 106
SWIDTH 393 0
DWIDTH 4 0
BBX 4 8 0 -1
BITMAP
0321
1872
1872
1872
1872
5791
5770
7610
ENDCHAR
STARTCHAR k
ENCODING 107
SWIDTH 801 0
DWIDTH 7 0
BBX 7 7 0 0
BITMAP
23202230
59508860
59557810
59487500
59578600
59547830
59506870
ENDCHAR
STARTCHAR l
ENCODING 108
SWIDTH 583 0
DWIDTH 5 0
BBX 5 7 0 0
BITMAP
232000
595000
595000
595000
595000
596540
598990
ENDCHAR
STARTCHAR m
ENCODING 109
SWIDTH 1167 0
DWIDTH 11 0
BBX 11 7 0 0
BITMAP
024553544000
27897A897500
487587857900
595086518820
595086518820
595086518820
595086518820
ENDCHAR
STARTCHAR n
ENCODING 110
SWIDTH 787 0
DWIDTH 7 0
BBX 7 7 0 0
BITMAP
22310320
78750950
58782950
58876950
59478850
59078850
59038780
ENDCHAR
STARTCHAR o
ENCODING 111
SWIDTH 833 0
DWIDTH 8 0
BBX 8 8 0 -1
BITMAP
00555200
07798730
57857780
69502882
69604792
37798860
05867710
00143000
ENDCHAR
STARTCHAR p
ENCODING 112
SWIDTH 781 0
DWIDTH 7 0
BBX 7 7 0 0
BITMAP
35554100
57666820
59898850
59556950
596A9840
59555300
59500000
ENDCHAR
STARTCHAR q
ENCODING 113
SWIDTH 788 0
DWIDTH 7 0
BBX 7 8 0 -1
BITMAP
00355530
18666750
58898950
68505950
68877950
28677950
01556950
00005850
ENDCHAR
STARTCHAR r
ENCODING 114
SWIDTH 831 0
DWIDTH 7 0
BBX 8 7 0 0
BITMAP
35555200
57666850
59899781
59656882
59799780
59668A10
59508750
ENDCHAR
STARTCHAR s
ENCODING 115
SWIDTH 683 0
DWIDTH 6 0
BBX 6 8 0 -1
BITMAP
024540
477776
593240
579962
045586
165577
488883
001100
ENDCHAR
STARTCHAR t
ENCODING 116
SWIDTH 588 0
DWIDTH 5 0
BBX 5 7 0 0
BITMAP
355550
466660
368840
058700
058700
058700
058700
ENDCHAR
STARTCHAR u
ENCODING 117
SWIDTH 795 0
DWIDTH 7 0
BBX 7 8 0 -1
BITMAP
23202220
59505870
59505870
59505870
49605860
47898750
05868600
00142000
ENDCHAR
STARTCHAR v
ENCODING 118
SWIDTH 855 0
DWIDTH 8 0
BBX 8 7 0 0
BITMAP
23200322
57802873
28745870
06868750
04686910
00868600
00687300
ENDCHAR
STARTCHAR w
ENCODING 119
SWIDTH 1129 0
DWIDTH 10 0
BBX 10 8 0 -1
BITMAP
2320321222
5950973577
5950973577
5950973577
5A52874587
4778798785
06878A7861
0012002100
ENDCHAR
STARTCHAR x
ENCODING 120
SWIDTH 790 0
DWIDTH 7 0
BBX 7 7 0 0
BITMAP
23302320
47777750
06788700
01878200
03877400
07887810
57858760
ENDCHAR
STARTCHAR y
ENCODING 121
SWIDTH 733 0
DWIDTH 7 0
BBX 7 7 0 0
BITMAP
22203220
47828820
08778500
04788200
00886000
00685000
00685000
ENDCHAR
STARTCHAR z
ENCODING 122
SWIDTH 714 0
DWIDTH 6 0
BBX 7 7 0 0
BITMAP
35542200
46578710
34777400
01886000
06782000
38775500
68889910
ENDCHAR
STARTCHAR braceleft
ENCODING 123
SWIDTH 396 0
DWIDTH 4 0
BBX 4 10 0 -2
BITMAP
0242
0883
3750
3750
5640
5820
4650
3750
1872
0473
ENDCHAR
STARTCHAR bar
ENCODING 124
SWIDTH 266 0
DWIDTH 2 0
BBX 2 9 0 -1
BITMAP
13
5A
5A
5A
5A
5A
5A
5A
59
ENDCHAR
STARTCHAR braceright
ENCODING 125
SWIDTH 396 0
DWIDTH 4 0
BBX 4 10 0 -2
BITMAP
3400
7750
0870
0770
0692
0572
0770
0770
4860
7610
ENDCHAR
STARTCHAR asciitilde
ENCODING 126
SWIDTH 665 0
DWIDTH 6 0
BBX 6 2 0 5
BITMAP
255543
579984
ENDCHAR
STARTCHAR uni00A0
ENCODING 160
SWIDTH 108 0
DWIDTH 1 0
BBX 1 1 0 0
BITMAP
00
ENDCHAR
STARTCHAR exclamdown
ENCODING 161
SWIDTH 336 0
DWIDTH 3 0
BBX 3 9 0 -1
BITMAP
1310
5A50
5A50
5A50
5A50
5A50
3530
3640
3530
ENDCHAR
STARTCHAR cent
ENCODING 162
SWIDTH 708 0
DWIDTH 6 0
BBX 6 9 0 -1
BITMAP
002520
037974
278686
587450
595010
578783
077877
003340
002410
ENDCHAR
STARTCHAR sterling
ENCODING 163
SWIDTH 689 0
DWIDTH 6 0
BBX 6 8 0 0
BITMAP
025551
388977
586550
5A6440
5A6661
5A6550
5A7550
5A9991
ENDCHAR
STARTCHAR currency
ENCODING 164
SWIDTH 715 0
DWIDTH 6 0
BBX 7 7 0 0
BITMAP
15004300
57758710
08557400
18005500
09206500
37998600
37116610
ENDCHAR
STARTCHAR yen
ENCODING 165
SWIDTH 796 0
DWIDTH 7 0
BBX 7 8 0 0
BITMAP
22101220
57705850
18758720
05878600
01787300
03777300
06787610
00586000
ENDCHAR
STARTCHAR brokenbar
ENCODING 166
SWIDTH 263 0
DWIDTH 2 0
BBX 2 9 0 -1
BITMAP
13
5A
5A
5A
12
35
5A
5A
59
ENDCHAR
STARTCHAR section
ENCODING 167
SWIDTH 108 0
DWIDTH 1 0
BBX 1 1 0 0
BITMAP
00
ENDCHAR
STARTCHAR dieresis
ENCODING 168
SWIDTH 556 0
DWIDTH 5 0
BBX 5 2 0 6
BITMAP
360630
230320
ENDCHAR
STARTCHAR copyright
ENCODING 169
SWIDTH 869 0
DWIDTH 8 0
BBX 8 8 0 0
BITMAP
00477300
07444560
54833662
85300017
86300017
54822553
08365460
00578400
ENDCHAR
STARTCHAR ordfeminine
ENCODING 170
SWIDTH 833 0
DWIDTH 8 0
BBX 8 8 0 -1
BITMAP
00454100
07776730
47878780
59502882
59602973
38796973
04877973
00021000
ENDCHAR
STARTCHAR guillemotleft
ENCODING 171
SWIDTH 911 0
DWIDTH 8 0
BBX 8 5 0 1
BITMAP
00140014
35952595
48744874
67675767
01550156
ENDCHAR
STARTCHAR logicalnot
ENCODING 172
SWIDTH 718 0
DWIDTH 6 0
BBX 7 4 0 1
BITMAP
46667610
58889810
00005810
00000100
ENDCHAR
STARTCHAR registered
ENCODING 174
SWIDTH 869 0
DWIDTH 8 0
BBX 8 8 0 0
BITMAP
00477300
07400560
53778462
80802817
8087B117
53806353
08300560
00578400
ENDCHAR
STARTCHAR degree
ENCODING 176
SWIDTH 330 0
DWIDTH 3 0
BBX 3 3 0 7
BITMAP
0300
5550
4840
ENDCHAR
STARTCHAR plusminus
ENCODING 177
SWIDTH 598 0
DWIDTH 5 0
BBX 5 6 0 0
BITMAP
034600
386950
596970
166820
166730
266650
ENDCHAR
STARTCHAR uni00B2
ENCODING 178
SWIDTH 435 0
DWIDTH 4 0
BBX 4 7 0 1
BITMAP
1330
4675
0065
0480
2820
5752
3552
ENDCHAR
STARTCHAR uni00B3
ENCODING 179
SWIDTH 515 0
DWIDTH 5 0
BBX 5 7 0 1
BITMAP
132000
568600
246910
078700
047740
368740
477400
ENDCHAR
STARTCHAR acute
ENCODING 180
SWIDTH 472 0
DWIDTH 4 0
BBX 4 3 0 6
BITMAP
0022
3684
1400
ENDCHAR
STARTCHAR uni00B5
ENCODING 181
SWIDTH 802 0
DWIDTH 7 0
BBX 7 8 0 -1
BITMAP
23202230
59505680
59505680
59505680
59505770
59698850
59668600
49542000
ENDCHAR
STARTCHAR paragraph
ENCODING 182
SWIDTH 676 0
DWIDTH 6 0
BBX 6 8 0 -1
BITMAP
004553
186675
588895
596795
389995
035795
000595
000697
ENDCHAR
STARTCHAR periodcentered
ENCODING 183
SWIDTH 260 0
DWIDTH 2 0
BBX 2 3 0 3
BITMAP
11
58
34
ENDCHAR
STARTCHAR cedilla
ENCODING 184
SWIDTH 321 0
DWIDTH 3 0
BBX 3 4 0 -4
BITMAP
0420
5640
5620
1520
ENDCHAR
STARTCHAR uni00B9
ENCODING 185
SWIDTH 359 0
DWIDTH 3 0
BBX 3 6 0 2
BITMAP
3430
4770
0680
0680
0680
0560
ENDCHAR
STARTCHAR ordmasculine
ENCODING 186
SWIDTH 835 0
DWIDTH 8 0
BBX 8 8 0 -1
BITMAP
00455200
07798730
57857780
69501963
69603872
38798870
04867720
00143000
ENDCHAR
STARTCHAR guillemotright
ENCODING 187
SWIDTH 912 0
DWIDTH 8 0
BBX 8 5 0 1
BITMAP
31003200
48644864
36953695
57775778
45204520
ENDCHAR
STARTCHAR onequarter
ENCODING 188
SWIDTH 1236 0
DWIDTH 11 0
BBX 11 9 0 -1
BITMAP
343003100000
476028500000
077056417600
077059157500
077087088330
055285276660
000564299980
000591011440
000760000000
ENDCHAR
STARTCHAR onehalf
ENCODING 189
SWIDTH 1154 0
DWIDTH 10 0
BBX 11 9 0 -1
BITMAP
343003100000
476028500000
077056445500
077059154910
077087004700
055285028100
000564073000
0005913AA800
000760000000
ENDCHAR
STARTCHAR threequarters
ENCODING 190
SWIDTH 1345 0
DWIDTH 12 0
BBX 12 9 0 -1
BITMAP
132000220000
568600860000
246912851760
078705645740
047745918833
368738627666
477428539998
000056401145
000048100000
ENDCHAR
STARTCHAR questiondown
ENCODING 191
SWIDTH 693 0
DWIDTH 6 0
BBX 6 8 0 0
BITMAP
045530
579874
045778
054679
097975
096440
164000
2A7000
ENDCHAR
STARTCHAR Agrave
ENCODING 192
SWIDTH 936 0
DWIDTH 8 0
BBX 9 11 0 0
BITMAP
0140000000
0377400000
0003200000
0003210000
0047860000
0068782000
0186875000
0578578000
0877587400
4787879600
6962257810
ENDCHAR
STARTCHAR Aacute
ENCODING 193
SWIDTH 936 0
DWIDTH 8 0
BBX 9 11 0 0
BITMAP
0000023000
0002685000
0000410000
0003210000
0047860000
0068782000
0186875000
0578578000
0877587400
4787879600
6962257810
ENDCHAR
STARTCHAR Acircumflex
ENCODING 194
SWIDTH 936 0
DWIDTH 8 0
BBX 9 10 0 0
BITMAP
0005800000
0007740000
0001100000
0047860000
0068782000
0186875000
0578578000
0877587400
4787879600
6962257810
ENDCHAR
STARTCHAR Atilde
ENCODING 195
SWIDTH 936 0
DWIDTH 8 0
BBX 9 10 0 0
BITMAP
0155535000
0469995000
0003210000
0047860000
0068782000
0186875000
0578578000
0877587400
4787879600
6962257810
ENDCHAR
STARTCHAR Adieresis
ENCODING 196
SWIDTH 936 0
DWIDTH 8 0
BBX 9 9 0 0
BITMAP
0063243000
0035342000
0047860000
0068782000
0186875000
0578578000
0877587400
4787879600
6962257810
ENDCHAR
STARTCHAR Aring
ENCODING 197
SWIDTH 936 0
DWIDTH 8 0
BBX 9 11 0 0
BITMAP
0001300000
0007530000
0007720000
0003210000
0047860000
0068782000
0186875000
0578578000
0877587400
4787879600
6962257810
ENDCHAR
STARTCHAR AE
ENCODING 198
SWIDTH 1198 0
DWIDTH 11 0
BBX 11 8 0 0
BITMAP
000324444420
004798555520
006878644420
019687755400
057857977700
087758762200
478787975520
68622579A940
ENDCHAR
STARTCHAR Ccedilla
ENCODING 199
SWIDTH 852 0
DWIDTH 8 0
BBX 8 12 0 -4
BITMAP
00355400
05889771
38875861
59600200
69500000
58720410
28789772
03876860
00077100
00475000
00463000
00043000
ENDCHAR
STARTCHAR Egrave
ENCODING 200
SWIDTH 706 0
DWIDTH 6 0
BBX 6 11 0 0
BITMAP
140000
377400
004200
133444
597555
596444
597520
597720
596210
596555
598999
ENDCHAR
STARTCHAR Eacute
ENCODING 201
SWIDTH 706 0
DWIDTH 6 0
BBX 6 11 0 0
BITMAP
000023
002685
000410
133444
597555
596444
597520
597720
596210
596555
598999
ENDCHAR
STARTCHAR Ecircumflex
ENCODING 202
SWIDTH 706 0
DWIDTH 6 0
BBX 6 10 0 0
BITMAP
005700
007740
121334
597555
596444
597520
597720
596210
596555
598999
ENDCHAR
STARTCHAR Edieresis
ENCODING 203
SWIDTH 706 0
DWIDTH 6 0
BBX 6 9 0 0
BITMAP
063243
165666
597555
596444
597520
597720
596210
596555
598999
ENDCHAR
STARTCHAR Igrave
ENCODING 204
SWIDTH 338 0
DWIDTH 3 0
BBX 5 11 -2 0
BITMAP
041000
168510
002400
001310
005950
005950
005950
005950
005950
005950
005950
ENDCHAR
STARTCHAR Iacute
ENCODING 205
SWIDTH 338 0
DWIDTH 3 0
BBX 5 11 0 0
BITMAP
000400
058620
032000
131000
595000
595000
595000
595000
595000
595000
595000
ENDCHAR
STARTCHAR Icircumflex
ENCODING 206
SWIDTH 338 0
DWIDTH 3 0
BBX 3 10 0 0
BITMAP
3830
5850
0100
5950
5950
5950
5950
5950
5950
5950
ENDCHAR
STARTCHAR Idieresis
ENCODING 207
SWIDTH 338 0
DWIDTH 3 0
BBX 5 9 -1 0
BITMAP
360630
253520
059500
059500
059500
059500
059500
059500
059500
ENDCHAR
STARTCHAR Eth
ENCODING 208
SWIDTH 905 0
DWIDTH 8 0
BBX 8 8 0 0
BITMAP
24444200
56555860
57999774
68830696
67740588
57854786
57666882
59999730
ENDCHAR
STARTCHAR Ntilde
ENCODING 209
SWIDTH 877 0
DWIDTH 8 0
BBX 8 10 0 0
BITMAP
03555430
05799830
22300221
78750685
58782685
58886685
59677785
59568875
59528775
59505786
ENDCHAR
STARTCHAR Ograve
ENCODING 210
SWIDTH 933 0
DWIDTH 8 0
BBX 9 12 0 -1
BITMAP
0140000000
0377400000
0004200000
0035540000
0588A78100
3887588600
5960047910
6950028820
5872067900
2878988500
0387695000
0003410000
ENDCHAR
STARTCHAR Oacute
ENCODING 211
SWIDTH 933 0
DWIDTH 8 0
BBX 9 12 0 -1
BITMAP
0000023000
0002685000
0000410000
0035540000
0588A78100
3887588600
5960047910
6950028820
5872067900
2878988500
0387695000
0003410000
ENDCHAR
STARTCHAR Ocircumflex
ENCODING 212
SWIDTH 933 0
DWIDTH 8 0
BBX 9 11 0 -1
BITMAP
0005700000
0007740000
0023430000
0588A78100
3887588600
5960047910
6950028820
5872067900
2878988500
0387695000
0003410000
ENDCHAR
STARTCHAR Otilde
ENCODING 213
SWIDTH 933 0
DWIDTH 8 0
BBX 9 11 0 -1
BITMAP
0155535000
0469995000
0035540000
0588A78100
3887588600
5960047910
6950028820
5872067900
2878988500
0387695000
0003410000
ENDCHAR
STARTCHAR Odieresis
ENCODING 214
SWIDTH 933 0
DWIDTH 8 0
BBX 9 10 0 -1
BITMAP
0063243000
0067662000
0588A78100
3887588600
5960047910
6950028820
5872067900
2878988500
0387695000
0003410000
ENDCHAR
STARTCHAR multiply
ENCODING 215
SWIDTH 790 0
DWIDTH 7 0
BBX 7 7 0 0
BITMAP
23302320
47777750
06788700
01878200
03877400
07887810
57858760
ENDCHAR
STARTCHAR Oslash
ENCODING 216
SWIDTH 938 0
DWIDTH 8 0
BBX 9 11 0 -2
BITMAP
0000021000
0035577100
0588978100
3887588600
5960046910
6950028820
5872067900
2878988500
0587695000
0673410000
0020000000
ENDCHAR
STARTCHAR Ugrave
ENCODING 217
SWIDTH 905 0
DWIDTH 8 0
BBX 8 12 0 -1
BITMAP
01300000
04763000
00041000
13100122
5A500586
5A500586
5A500586
5A500586
57711685
28899773
04866840
00044100
ENDCHAR
STARTCHAR Uacute
ENCODING 218
SWIDTH 905 0
DWIDTH 8 0
BBX 8 12 0 -1
BITMAP
00000220
00036840
00014000
13100122
5A500586
5A500586
5A500586
5A500586
57711685
28899773
04866840
00044100
ENDCHAR
STARTCHAR Ucircumflex
ENCODING 219
SWIDTH 905 0
DWIDTH 8 0
BBX 8 11 0 -1
BITMAP
00076000
00178200
13011022
5A500586
5A500586
5A500586
5A500586
57711685
28899773
04866840
00044100
ENDCHAR
STARTCHAR Udieresis
ENCODING 220
SWIDTH 905 0
DWIDTH 8 0
BBX 8 10 0 -1
BITMAP
01533420
13422432
5A500586
5A500586
5A500586
5A500586
57711685
28899773
04866840
00044100
ENDCHAR
STARTCHAR Yacute
ENCODING 221
SWIDTH 789 0
DWIDTH 7 0
BBX 7 11 0 0
BITMAP
00000400
00058620
00032000
22101220
58706850
18758820
05878600
01787200
00786000
00595000
00595000
ENDCHAR
STARTCHAR Thorn
ENCODING 222
SWIDTH 798 0
DWIDTH 7 0
BBX 7 9 0 -1
BITMAP
36300000
5A776300
5A878730
5A757860
5A505680
5A678850
5A786710
5A654000
36300000
ENDCHAR
STARTCHAR germandbls
ENCODING 223
SWIDTH 826 0
DWIDTH 7 0
BBX 8 9 0 -1
BITMAP
02555400
278A9740
58756790
59667780
59789780
59535782
59666880
59799720
36300000
ENDCHAR
STARTCHAR agrave
ENCODING 224
SWIDTH 832 0
DWIDTH 7 0
BBX 8 11 0 -1
BITMAP
03100000
15851000
00140000
00454100
07686720
57878770
59503791
69602882
48797882
04977882
00021000
ENDCHAR
STARTCHAR aacute
ENCODING 225
SWIDTH 832 0
DWIDTH 7 0
BBX 8 11 0 -1
BITMAP
00000400
00058620
00033000
00454100
07686720
57878770
59503791
69602882
48797882
04977882
00021000
ENDCHAR
STARTCHAR acircumflex
ENCODING 226
SWIDTH 832 0
DWIDTH 7 0
BBX 8 10 0 -1
BITMAP
00184000
00576000
00332100
07686720
57878770
59503791
69602882
48797882
04977882
00021000
ENDCHAR
STARTCHAR atilde
ENCODING 227
SWIDTH 832 0
DWIDTH 7 0
BBX 8 10 0 -1
BITMAP
04554430
08799710
00454100
07686720
57878770
59503791
69602882
48797882
04977882
00021000
ENDCHAR
STARTCHAR adieresis
ENCODING 228
SWIDTH 832 0
DWIDTH 7 0
BBX 8 9 0 -1
BITMAP
03515400
02757300
07686720
57878770
59503791
69602882
48797882
04977882
00021000
ENDCHAR
STARTCHAR aring
ENCODING 229
SWIDTH 832 0
DWIDTH 7 0
BBX 8 11 0 -1
BITMAP
00031000
00457000
00376000
00454100
07686720
57878770
59503791
69602882
48797882
04977882
00021000
ENDCHAR
STARTCHAR ae
ENCODING 230
SWIDTH 1166 0
DWIDTH 11 0
BBX 11 8 0 -1
BITMAP
004550355510
076868876610
578787A54410
5950379A9900
696028865500
487978865510
0497788A9910
000210000000
ENDCHAR
STARTCHAR ccedilla
ENCODING 231
SWIDTH 736 0
DWIDTH 7 0
BBX 7 11 0 -4
BITMAP
00555200
07798820
57857300
69500000
69602000
37798610
05867820
00285000
00762000
00751000
00251000
ENDCHAR
STARTCHAR egrave
ENCODING 232
SWIDTH 666 0
DWIDTH 6 0
BBX 6 10 0 0
BITMAP
230000
476300
004100
233553
597664
596442
598994
596552
596553
598996
ENDCHAR
STARTCHAR eacute
ENCODING 233
SWIDTH 666 0
DWIDTH 6 0
BBX 6 10 0 0
BITMAP
000032
003684
001400
233553
597664
596442
598994
596552
596553
598996
ENDCHAR
STARTCHAR ecircumflex
ENCODING 234
SWIDTH 666 0
DWIDTH 6 0
BBX 6 9 0 0
BITMAP
007600
017820
222443
597664
596442
598994
596552
596553
598996
ENDCHAR
STARTCHAR edieresis
ENCODING 235
SWIDTH 666 0
DWIDTH 6 0
BBX 6 8 0 0
BITMAP
153341
265674
597664
596442
598994
596552
596553
598996
ENDCHAR
STARTCHAR igrave
ENCODING 236
SWIDTH 337 0
DWIDTH 3 0
BBX 5 10 -2 0
BITMAP
041000
168510
002400
002320
005950
005950
005950
005950
005950
005950
ENDCHAR
STARTCHAR iacute
ENCODING 237
SWIDTH 337 0
DWIDTH 3 0
BBX 5 10 0 0
BITMAP
000400
058620
032000
232000
595000
595000
595000
595000
595000
595000
ENDCHAR
STARTCHAR icircumflex
ENCODING 238
SWIDTH 337 0
DWIDTH 3 0
BBX 3 9 0 0
BITMAP
3830
5850
0200
5950
5950
5950
5950
5950
5950
ENDCHAR
STARTCHAR idieresis
ENCODING 239
SWIDTH 337 0
DWIDTH 3 0
BBX 5 8 -1 0
BITMAP
360630
253520
059500
059500
059500
059500
059500
059500
ENDCHAR
STARTCHAR eth
ENCODING 240
SWIDTH 783 0
DWIDTH 7 0
BBX 7 9 0 -1
BITMAP
02554000
17897810
01568860
03546960
47897960
69746960
68898750
17758600
00342000
ENDCHAR
STARTCHAR ntilde
ENCODING 241
SWIDTH 787 0
DWIDTH 7 0
BBX 7 9 0 0
BITMAP
04553420
17799700
22310320
78750950
58782950
58876950
59478850
59078850
59038780
ENDCHAR
STARTCHAR ograve
ENCODING 242
SWIDTH 833 0
DWIDTH 8 0
BBX 8 11 0 -1
BITMAP
03100000
05851000
00140000
00555200
07798730
57857780
69502882
69604792
37798860
05867710
00143000
ENDCHAR
STARTCHAR oacute
ENCODING 243
SWIDTH 833 0
DWIDTH 8 0
BBX 8 11 0 -1
BITMAP
00000400
00047630
00033000
00555200
07798730
57857780
69502882
69604792
37798860
05867710
00143000
ENDCHAR
STARTCHAR ocircumflex
ENCODING 244
SWIDTH 833 0
DWIDTH 8 0
BBX 8 10 0 -1
BITMAP
00084000
00477000
00343200
07798730
57857780
69502882
69604792
37798860
05867710
00143000
ENDCHAR
STARTCHAR otilde
ENCODING 245
SWIDTH 833 0
DWIDTH 8 0
BBX 8 10 0 -1
BITMAP
04554330
07799720
00555200
07798730
57857780
69502882
69604792
37798860
05867710
00143000
ENDCHAR
STARTCHAR odieresis
ENCODING 246
SWIDTH 833 0
DWIDTH 8 0
BBX 8 9 0 -1
BITMAP
03424500
02767500
07798730
57857780
69502882
69604792
37798860
05867710
00143000
ENDCHAR
STARTCHAR divide
ENCODING 247
SWIDTH 260 0
DWIDTH 2 0
BBX 4 6 -1 0
BITMAP
0360
0590
1553
1553
0590
0360
ENDCHAR
STARTCHAR oslash
ENCODING 248
SWIDTH 832 0
DWIDTH 8 0
BBX 8 9 0 -1
BITMAP
00000100
00556730
07798740
57857780
69502882
69604792
37798860
07867710
04543000
ENDCHAR
STARTCHAR ugrave
ENCODING 249
SWIDTH 795 0
DWIDTH 7 0
BBX 7 11 0 -1
BITMAP
04100000
16851000
00240000
23202220
59505870
59505870
59505870
49605860
47898750
05868600
00142000
ENDCHAR
STARTCHAR uacute
ENCODING 250
SWIDTH 795 0
DWIDTH 7 0
BBX 7 11 0 -1
BITMAP
00000400
00058620
00032000
23202220
59505870
59505870
59505870
49605860
47898750
05868600
00142000
ENDCHAR
STARTCHAR ucircumflex
ENCODING 251
SWIDTH 795 0
DWIDTH 7 0
BBX 7 10 0 -1
BITMAP
00283000
00575000
23010220
59505870
59505870
59505870
49605860
47898750
05868600
00142000
ENDCHAR
STARTCHAR udieresis
ENCODING 252
SWIDTH 795 0
DWIDTH 7 0
BBX 7 9 0 -1
BITMAP
03605400
25504520
59505870
59505870
59505870
49605860
47898750
05868600
00142000
ENDCHAR
STARTCHAR yacute
ENCODING 253
SWIDTH 733 0
DWIDTH 7 0
BBX 7 10 0 0
BITMAP
00001300
00158510
00041000
22203220
47828820
08778500
04788200
00886000
00685000
00685000
ENDCHAR
STARTCHAR thorn
ENCODING 254
SWIDTH 833 0
DWIDTH 8 0
BBX 8 9 0 -1
BITMAP
13100000
5A500000
5A455300
5A466760
5A388781
5A455782
5A399770
5A455400
59400000
ENDCHAR
STARTCHAR ydieresis
ENCODING 255
SWIDTH 733 0
DWIDTH 7 0
BBX 7 8 0 0
BITMAP
05415300
25415420
47828820
08778500
04788200
00886000
00685000
00685000
ENDCHAR
STARTCHAR Amacron
ENCODING 256
SWIDTH 936 0
DWIDTH 8 0
BBX 9 8 0 0
BITMAP
0003210000
0047860000
0068782000
0186875000
0578578000
0877587400
4787879600
6962257810
ENDCHAR
STARTCHAR amacron
ENCODING 257
SWIDTH 832 0
DWIDTH 7 0
BBX 8 8 0 -1
BITMAP
00454100
07686720
57878770
59503791
69602882
48797882
04977882
00021000
ENDCHAR
STARTCHAR Abreve
ENCODING 258
SWIDTH 936 0
DWIDTH 8 0
BBX 9 10 0 0
BITMAP
0001010000
0007830000
0003210000
0047860000
0068782000
0186875000
0578578000
0877587400
4787879600
6962257810
ENDCHAR
STARTCHAR abreve
ENCODING 259
SWIDTH 832 0
DWIDTH 7 0
BBX 8 10 0 -1
BITMAP
00101000
00486000
00454100
07686720
57878770
59503791
69602882
48797882
04977882
00021000
ENDCHAR
STARTCHAR Aogonek
ENCODING 260
SWIDTH 937 0
DWIDTH 8 0
BBX 9 11 0 -3
BITMAP
0003210000
0037870000
0058783000
0186885000
0578579000
0787596400
3778878700
5874347820
0037100000
0056300000
0033200000
ENDCHAR
STARTCHAR aogonek
ENCODING 261
SWIDTH 832 0
DWIDTH 7 0
BBX 8 10 0 -3
BITMAP
00454100
07686720
57878770
59503791
69602882
48797882
04AA7882
00761000
00940000
00530000
ENDCHAR
STARTCHAR Cacute
ENCODING 262
SWIDTH 852 0
DWIDTH 8 0
BBX 8 12 0 -1
BITMAP
00000230
00026850
00004100
00355400
05889771
38875861
59600200
69500000
58720410
28789772
03876860
00034100
ENDCHAR
STARTCHAR cacute
ENCODING 263
SWIDTH 736 0
DWIDTH 7 0
BBX 7 11 0 -1
BITMAP
00000400
00047630
00033000
00555200
07798820
57857300
69500000
69602000
37798610
05867820
00143000
ENDCHAR
STARTCHAR Cdotaccent
ENCODING 266
SWIDTH 852 0
DWIDTH 8 0
BBX 8 11 0 -1
BITMAP
00024000
00035000
00379400
05889771
38875861
59600200
69500000
58720410
28789772
03876860
00034100
ENDCHAR
STARTCHAR cdotaccent
ENCODING 267
SWIDTH 736 0
DWIDTH 7 0
BBX 7 10 0 -1
BITMAP
00042000
00053000
005A7200
07798820
57857300
69500000
69602000
37798610
05867820
00143000
ENDCHAR
STARTCHAR Ccaron
ENCODING 268
SWIDTH 852 0
DWIDTH 8 0
BBX 8 11 0 -1
BITMAP
00085400
00069100
00366400
05889771
38875861
59600200
69500000
58720410
28789772
03876860
00034100
ENDCHAR
STARTCHAR ccaron
ENCODING 269
SWIDTH 736 0
DWIDTH 7 0
BBX 7 10 0 -1
BITMAP
00567000
00195000
00576200
07798820
57857300
69500000
69602000
37798610
05867820
00143000
ENDCHAR
STARTCHAR Dcaron
ENCODING 270
SWIDTH 886 0
DWIDTH 8 0
BBX 8 10 0 0
BITMAP
00276300
00078000
24465100
57556850
59899783
59500785
595005A6
59634775
58666881
69999720
ENDCHAR
STARTCHAR dcaron
ENCODING 271
SWIDTH 1084 0
DWIDTH 10 0
BBX 10 7 0 0
BITMAP
3555400143
5766683175
5989878174
5950378330
5963678100
5866686000
6999851000
ENDCHAR
STARTCHAR Dcroat
ENCODING 272
SWIDTH 888 0
DWIDTH 8 0
BBX 9 8 -1 0
BITMAP
0244441000
0575568500
05A8997830
24A4407850
14A4205A50
15A6548750
0586668810
0699997200
ENDCHAR
STARTCHAR dcroat
ENCODING 273
SWIDTH 833 0
DWIDTH 8 0
BBX 9 7 -1 0
BITMAP
0355540000
0576668300
0598987800
2494437820
2697767810
0586668600
0699985100
ENDCHAR
STARTCHAR Emacron
ENCODING 274
SWIDTH 706 0
DWIDTH 6 0
BBX 6 8 0 0
BITMAP
133444
597555
596444
597520
597720
596210
596555
598999
ENDCHAR
STARTCHAR emacron
ENCODING 275
SWIDTH 666 0
DWIDTH 6 0
BBX 6 7 0 0
BITMAP
233553
597664
596442
598994
596552
596553
598996
ENDCHAR
STARTCHAR Ebreve
ENCODING 276
SWIDTH 706 0
DWIDTH 6 0
BBX 6 10 0 0
BITMAP
001110
007830
133444
597555
596444
597520
597720
596210
596555
598999
ENDCHAR
STARTCHAR ebreve
ENCODING 277
SWIDTH 666 0
DWIDTH 6 0
BBX 6 9 0 0
BITMAP
011110
017720
233553
597664
596442
598994
596552
596553
598996
ENDCHAR
STARTCHAR Edotaccent
ENCODING 278
SWIDTH 706 0
DWIDTH 6 0
BBX 6 11 0 0
BITMAP
001100
005900
003500
133444
597555
596444
597520
597720
596210
596555
598999
ENDCHAR
STARTCHAR edotaccent
ENCODING 279
SWIDTH 666 0
DWIDTH 6 0
BBX 6 10 0 0
BITMAP
001100
007700
004400
233553
597664
596442
598994
596552
596553
598996
ENDCHAR
STARTCHAR Eogonek
ENCODING 280
SWIDTH 706 0
DWIDTH 6 0
BBX 6 11 0 -3
BITMAP
133444
597555
596444
597520
597720
596210
596555
5989AD
000056
000058
000035
ENDCHAR
STARTCHAR eogonek
ENCODING 281
SWIDTH 666 0
DWIDTH 6 0
BBX 6 10 0 -3
BITMAP
233553
597664
596442
598994
596552
596553
5989A9
000074
000094
000053
ENDCHAR
STARTCHAR Ecaron
ENCODING 282
SWIDTH 706 0
DWIDTH 6 0
BBX 6 10 0 0
BITMAP
018540
006910
134644
597555
596444
597520
597720
596210
596555
598999
ENDCHAR
STARTCHAR ecaron
ENCODING 283
SWIDTH 666 0
DWIDTH 6 0
BBX 6 9 0 0
BITMAP
026730
008700
235653
597664
596442
598994
596552
596553
598996
ENDCHAR
STARTCHAR Gbreve
ENCODING 286
SWIDTH 908 0
DWIDTH 8 0
BBX 8 11 0 -1
BITMAP
00011100
00078300
00355400
05889771
38875861
59600200
68500466
58710678
28789A78
03866978
00044200
ENDCHAR
STARTCHAR gbreve
ENCODING 287
SWIDTH 827 0
DWIDTH 7 0
BBX 8 10 0 -1
BITMAP
00101000
00387000
00555200
07798820
57857300
69500120
69603781
37799781
05868781
00143000
ENDCHAR
STARTCHAR Gdotaccent
ENCODING 288
SWIDTH 908 0
DWIDTH 8 0
BBX 8 11 0 -1
BITMAP
00024000
00035000
00379400
05889771
38875861
59600200
68500466
58710678
28789A78
03866978
00044200
ENDCHAR
STARTCHAR gdotaccent
ENCODING 289
SWIDTH 827 0
DWIDTH 7 0
BBX 8 10 0 -1
BITMAP
00042000
00053000
005A7200
07798820
57857300
69500120
69603781
37799781
05868781
00143000
ENDCHAR
STARTCHAR Gcommaaccent
ENCODING 290
SWIDTH 908 0
DWIDTH 8 0
BBX 8 12 0 -4
BITMAP
00355400
05889771
38875861
59600200
68500466
58710678
28789A78
03866978
00058200
0004A000
00038000
00033000
ENDCHAR
STARTCHAR gcommaaccent
ENCODING 291
SWIDTH 827 0
DWIDTH 7 0
BBX 8 8 0 -1
BITMAP
00555200
07798820
57857300
69500120
69603781
37799781
05868781
00143000
ENDCHAR
STARTCHAR Hcircumflex
ENCODING 292
SWIDTH 901 0
DWIDTH 8 0
BBX 8 10 0 0
BITMAP
00076000
00178200
13011021
59500595
59500595
59655795
59777895
59522695
59500595
59500595
ENDCHAR
STARTCHAR hcircumflex
ENCODING 293
SWIDTH 830 0
DWIDTH 7 0
BBX 8 9 0 0
BITMAP
00084000
00477000
23011230
59502791
59524791
59889791
59656791
59502791
59502791
ENDCHAR
STARTCHAR Hbar
ENCODING 294
SWIDTH 901 0
DWIDTH 8 0
BBX 10 8 -1 0
BITMAP
0131001220
14A4553951
16A6556961
05A6557960
05A7778960
05A5226960
05A5005960
05A5005960
ENDCHAR
STARTCHAR hbar
ENCODING 295
SWIDTH 830 0
DWIDTH 7 0
BBX 9 7 -1 0
BITMAP
0232012300
14A4417810
16A6677830
05A8897810
05A6567810
05A5027810
05A5027810
ENDCHAR
STARTCHAR Itilde
ENCODING 296
SWIDTH 338 0
DWIDTH 3 0
BBX 7 10 -2 0
BITMAP
05553520
27799700
00131000
00595000
00595000
00595000
00595000
00595000
00595000
00595000
ENDCHAR
STARTCHAR itilde
ENCODING 297
SWIDTH 337 0
DWIDTH 3 0
BBX 7 9 -2 0
BITMAP
05553520
27799700
00232000
00595000
00595000
00595000
00595000
00595000
00595000
ENDCHAR
STARTCHAR Imacron
ENCODING 298
SWIDTH 338 0
DWIDTH 3 0
BBX 3 8 0 0
BITMAP
1310
5950
5950
5950
5950
5950
5950
5950
ENDCHAR
STARTCHAR imacron
ENCODING 299
SWIDTH 337 0
DWIDTH 3 0
BBX 3 7 0 0
BITMAP
2320
5950
5950
5950
5950
5950
5950
ENDCHAR
STARTCHAR Ibreve
ENCODING 300
SWIDTH 338 0
DWIDTH 3 0
BBX 3 10 0 0
BITMAP
1010
5850
1310
5950
5950
5950
5950
5950
5950
5950
ENDCHAR
STARTCHAR ibreve
ENCODING 301
SWIDTH 337 0
DWIDTH 3 0
BBX 3 9 0 0
BITMAP
1010
5850
2320
5950
5950
5950
5950
5950
5950
ENDCHAR
STARTCHAR Iogonek
ENCODING 302
SWIDTH 338 0
DWIDTH 3 0
BBX 3 11 0 -3
BITMAP
1310
5950
5950
5950
5950
5950
5950
5B70
0840
0A40
0530
ENDCHAR
STARTCHAR iogonek
ENCODING 303
SWIDTH 337 0
DWIDTH 3 0
BBX 3 10 0 -3
BITMAP
2320
5950
5950
5950
5950
5950
5B70
0740
0A40
0530
ENDCHAR
STARTCHAR Idotaccent
ENCODING 304
SWIDTH 338 0
DWIDTH 3 0
BBX 3 10 0 0
BITMAP
1410
1520
3730
5950
5950
5950
5950
5950
5950
5950
ENDCHAR
STARTCHAR dotlessi
ENCODING 305
SWIDTH 337 0
DWIDTH 3 0
BBX 3 7 0 0
BITMAP
2320
5950
5950
5950
5950
5950
5950
ENDCHAR
STARTCHAR IJ
ENCODING 306
SWIDTH 774 0
DWIDTH 7 0
BBX 7 9 0 -1
BITMAP
13101310
59505950
59505950
59505950
59505950
59506950
59578740
59548600
00032000
ENDCHAR
STARTCHAR ij
ENCODING 307
SWIDTH 729 0
DWIDTH 7 0
BBX 7 8 0 -1
BITMAP
23203210
59509730
59509730
59509730
59509730
59557810
59557700
00076100
ENDCHAR
STARTCHAR Jcircumflex
ENCODING 308
SWIDTH 434 0
DWIDTH 4 0
BBX 4 11 0 -1
BITMAP
0481
0675
0010
0685
0685
0685
0685
0685
7874
5860
4200
ENDCHAR
STARTCHAR jcircumflex
ENCODING 309
SWIDTH 393 0
DWIDTH 4 0
BBX 4 10 0 -1
BITMAP
0760
1782
1110
1872
1872
1872
1872
5791
5770
7610
ENDCHAR
STARTCHAR Kcommaaccent
ENCODING 310
SWIDTH 815 0
DWIDTH 7 0
BBX 7 12 0 -4
BITMAP
13101230
59506860
59537730
59568600
59696500
59568700
59528740
59505880
00032000
00095000
00065000
00051000
ENDCHAR
STARTCHAR kcommaaccent
ENCODING 311
SWIDTH 801 0
DWIDTH 7 0
BBX 7 11 0 -4
BITMAP
23202230
59508860
59557810
59487500
59578600
59547830
59506870
00032000
00185000
00065000
00051000
ENDCHAR
STARTCHAR kgreenlandic
ENCODING 312
SWIDTH 801 0
DWIDTH 7 0
BBX 7 7 0 0
BITMAP
23202230
59508860
59557810
59487500
59578600
59547830
59506870
ENDCHAR
STARTCHAR Lacute
ENCODING 313
SWIDTH 604 0
DWIDTH 5 0
BBX 6 11 0 0
BITMAP
000040
004773
002300
131000
595000
595000
595000
595000
595000
596551
598991
ENDCHAR
STARTCHAR lacute
ENCODING 314
SWIDTH 583 0
DWIDTH 5 0
BBX 5 10 0 0
BITMAP
000400
058620
032000
232000
595000
595000
595000
595000
596540
598990
ENDCHAR
STARTCHAR Lcommaaccent
ENCODING 315
SWIDTH 604 0
DWIDTH 5 0
BBX 6 12 0 -4
BITMAP
131000
595000
595000
595000
595000
595000
596551
598991
003200
009500
006500
005100
ENDCHAR
STARTCHAR lcommaaccent
ENCODING 316
SWIDTH 583 0
DWIDTH 5 0
BBX 5 11 0 -4
BITMAP
232000
595000
595000
595000
595000
596540
598990
013200
018500
016500
005000
ENDCHAR
STARTCHAR Lcaron
ENCODING 317
SWIDTH 856 0
DWIDTH 8 0
BBX 8 8 0 0
BITMAP
13100243
59500265
59500174
59500120
59500000
59500000
59655100
59899100
ENDCHAR
STARTCHAR lcaron
ENCODING 318
SWIDTH 584 0
DWIDTH 5 0
BBX 5 7 0 0
BITMAP
232350
595480
595570
595210
595000
596540
598990
ENDCHAR
STARTCHAR Ldot
ENCODING 319
SWIDTH 604 0
DWIDTH 5 0
BBX 6 8 0 0
BITMAP
131000
595000
595110
595760
595430
595000
596551
598991
ENDCHAR
STARTCHAR ldot
ENCODING 320
SWIDTH 582 0
DWIDTH 5 0
BBX 5 7 0 0
BITMAP
232000
595110
595760
595430
595000
596540
598990
ENDCHAR
STARTCHAR Lslash
ENCODING 321
SWIDTH 604 0
DWIDTH 5 0
BBX 7 8 -1 0
BITMAP
01310000
05A50000
05A45100
24A41000
44A51000
36A50000
05A65510
05A89910
ENDCHAR
STARTCHAR lslash
ENCODING 322
SWIDTH 581 0
DWIDTH 5 0
BBX 6 7 -1 0
BITMAP
023200
05A510
05A481
43A551
16A500
05A655
05A899
ENDCHAR
STARTCHAR Nacute
ENCODING 323
SWIDTH 877 0
DWIDTH 8 0
BBX 8 11 0 0
BITMAP
00000310
00036740
00014000
22300221
78750685
58782685
58886685
59677785
59568875
59528775
59505786
ENDCHAR
STARTCHAR nacute
ENCODING 324
SWIDTH 787 0
DWIDTH 7 0
BBX 7 10 0 0
BITMAP
00000400
00058620
00032000
22310320
78750950
58782950
58876950
59478850
59078850
59038780
ENDCHAR
STARTCHAR Ncommaaccent
ENCODING 325
SWIDTH 877 0
DWIDTH 8 0
BBX 8 12 0 -4
BITMAP
22300221
78750685
58782685
58886685
59677785
59568875
59528775
59505786
00032000
00086000
00056000
00042000
ENDCHAR
STARTCHAR ncommaaccent
ENCODING 326
SWIDTH 787 0
DWIDTH 7 0
BBX 7 11 0 -4
BITMAP
22310320
78750950
58782950
58876950
59478850
59078850
59038780
00122000
00365000
00164000
00140000
ENDCHAR
STARTCHAR Ncaron
ENCODING 327
SWIDTH 877 0
DWIDTH 8 0
BBX 8 10 0 0
BITMAP
00357200
00096000
22321221
78750685
58782685
58886685
59677785
59568875
59528775
59505786
ENDCHAR
STARTCHAR ncaron
ENCODING 328
SWIDTH 787 0
DWIDTH 7 0
BBX 7 9 0 0
BITMAP
00575000
00474000
22330320
78750950
58782950
58876950
59478850
59078850
59038780
ENDCHAR
STARTCHAR Eng
ENCODING 330
SWIDTH 874 0
DWIDTH 8 0
BBX 8 11 0 -3
BITMAP
22300221
78750785
58783785
58787785
5A587785
5A567785
5A518785
5A503775
00004865
00006871
00006620
ENDCHAR
STARTCHAR eng
ENCODING 331
SWIDTH 691 0
DWIDTH 6 0
BBX 6 10 0 -3
BITMAP
223122
787578
587888
588878
595778
590778
590378
000187
000474
000230
ENDCHAR
STARTCHAR Omacron
ENCODING 332
SWIDTH 933 0
DWIDTH 8 0
BBX 9 9 0 -1
BITMAP
0035540000
0588A78100
3887588600
5960047910
6950028820
5872067900
2878988500
0387695000
0003410000
ENDCHAR
STARTCHAR omacron
ENCODING 333
SWIDTH 833 0
DWIDTH 8 0
BBX 8 8 0 -1
BITMAP
00555200
07798730
57857780
69502882
69604792
37798860
05867710
00143000
ENDCHAR
STARTCHAR Obreve
ENCODING 334
SWIDTH 933 0
DWIDTH 8 0
BBX 9 11 0 -1
BITMAP
0001110000
0007830000
0035540000
0588A78100
3887588600
5960047910
6950028820
5872067900
2878988500
0387695000
0003410000
ENDCHAR
STARTCHAR obreve
ENCODING 335
SWIDTH 833 0
DWIDTH 8 0
BBX 8 10 0 -1
BITMAP
00101000
00387000
00555200
07798730
57857780
69502882
69604792
37798860
05867710
00143000
ENDCHAR
STARTCHAR Ohungarumlaut
ENCODING 336
SWIDTH 933 0
DWIDTH 8 0
BBX 9 12 0 -1
BITMAP
0000400410
0058667730
0032024000
0035540000
0588A78100
3887588600
5960047910
6950028820
5872067900
2878988500
0387695000
0003410000
ENDCHAR
STARTCHAR ohungarumlaut
ENCODING 337
SWIDTH 833 0
DWIDTH 8 0
BBX 9 11 0 -1
BITMAP
0002201300
0268658510
0140041000
0055520000
0779873000
5785778000
6950288200
6960479200
3779886000
0586771000
0014300000
ENDCHAR
STARTCHAR OE
ENCODING 338
SWIDTH 1317 0
DWIDTH 12 0
BBX 12 9 0 -1
BITMAP
003554224442
058897977553
388757876442
596004776400
695002878600
597206874200
288897876552
03876877A995
000341000000
ENDCHAR
STARTCHAR oe
ENCODING 339
SWIDTH 1174 0
DWIDTH 11 0
BBX 11 8 0 -1
BITMAP
005550255510
075031786610
552528764410
6150227A9900
605044775500
373036775510
0586717A9920
001430000000
ENDCHAR
STARTCHAR Racute
ENCODING 340
SWIDTH 843 0
DWIDTH 8 0
BBX 8 11 0 0
BITMAP
00004000
00586200
00320000
24444200
57555850
59899772
59544954
59665781
5979A950
59508750
59505960
ENDCHAR
STARTCHAR Rcommaaccent
ENCODING 342
SWIDTH 843 0
DWIDTH 8 0
BBX 8 12 0 -4
BITMAP
24444200
57555850
59899772
59544954
59665781
5979A950
59508750
59505960
00132000
00275000
00165000
00150000
ENDCHAR
STARTCHAR rcommaaccent
ENCODING 343
SWIDTH 831 0
DWIDTH 7 0
BBX 8 11 0 -4
BITMAP
35555200
57666850
59899781
59656882
59799780
59668A10
59508750
00221000
00464000
00163000
00140000
ENDCHAR
STARTCHAR Rcaron
ENCODING 344
SWIDTH 843 0
DWIDTH 8 0
BBX 8 10 0 0
BITMAP
05760000
03740000
24754200
57555850
59899772
59544954
59665781
5979A950
59508750
59505960
ENDCHAR
STARTCHAR rcaron
ENCODING 345
SWIDTH 831 0
DWIDTH 7 0
BBX 8 9 0 0
BITMAP
00458000
00195000
35566200
57666850
59899781
59656882
59799780
59668A10
59508750
ENDCHAR
STARTCHAR Sacute
ENCODING 346
SWIDTH 682 0
DWIDTH 6 0
BBX 6 12 0 -1
BITMAP
000022
002685
001400
035551
378976
596540
597650
377875
024687
159886
486683
014410
ENDCHAR
STARTCHAR sacute
ENCODING 347
SWIDTH 683 0
DWIDTH 6 0
BBX 6 11 0 -1
BITMAP
000022
002685
001400
024540
477776
593240
579962
045586
165577
488883
001100
ENDCHAR
STARTCHAR Scircumflex
ENCODING 348
SWIDTH 682 0
DWIDTH 6 0
BBX 6 11 0 -1
BITMAP
007600
017820
023441
378976
596540
597650
377875
024687
159886
486683
014410
ENDCHAR
STARTCHAR scircumflex
ENCODING 349
SWIDTH 683 0
DWIDTH 6 0
BBX 6 10 0 -1
BITMAP
007600
017820
013430
477776
593240
579962
045586
165577
488883
001100
ENDCHAR
STARTCHAR Scedilla
ENCODING 350
SWIDTH 682 0
DWIDTH 6 0
BBX 6 12 0 -4
BITMAP
035551
378976
596540
597650
377875
024687
159886
486683
017610
056400
056200
005200
ENDCHAR
STARTCHAR scedilla
ENCODING 351
SWIDTH 683 0
DWIDTH 6 0
BBX 6 11 0 -4
BITMAP
024540
477776
593240
579962
045586
165577
488883
005400
056400
056300
005300
ENDCHAR
STARTCHAR Scaron
ENCODING 352
SWIDTH 682 0
DWIDTH 6 0
BBX 6 11 0 -1
BITMAP
017640
006800
036651
378976
596540
597650
377875
024687
159886
486683
014410
ENDCHAR
STARTCHAR scaron
ENCODING 353
SWIDTH 683 0
DWIDTH 6 0
BBX 6 10 0 -1
BITMAP
017640
006800
026640
477776
593240
579962
045586
165577
488883
001100
ENDCHAR
STARTCHAR Tcommaaccent
ENCODING 354
SWIDTH 591 0
DWIDTH 5 0
BBX 5 11 0 -3
BITMAP
344440
455550
38A940
058600
058600
058600
058600
06C700
077100
085100
025100
ENDCHAR
STARTCHAR tcommaaccent
ENCODING 355
SWIDTH 588 0
DWIDTH 5 0
BBX 5 10 0 -3
BITMAP
355550
466660
368840
058700
058700
058700
06C700
087100
085000
025000
ENDCHAR
STARTCHAR Tcaron
ENCODING 356
SWIDTH 591 0
DWIDTH 5 0
BBX 5 10 0 0
BITMAP
057700
028500
346540
455550
38A940
058600
058600
058600
058600
058600
ENDCHAR
STARTCHAR tcaron
ENCODING 357
SWIDTH 842 0
DWIDTH 8 0
BBX 8 7 0 0
BITMAP
35555332
46666354
36884272
05870120
05870000
05870000
05870000
ENDCHAR
STARTCHAR Tbar
ENCODING 358
SWIDTH 591 0
DWIDTH 5 0
BBX 5 8 0 0
BITMAP
344440
455550
38A940
338650
148620
158620
058600
058600
ENDCHAR
STARTCHAR tbar
ENCODING 359
SWIDTH 588 0
DWIDTH 5 0
BBX 5 7 0 0
BITMAP
355550
466660
368840
338640
438660
468750
058700
ENDCHAR
STARTCHAR Utilde
ENCODING 360
SWIDTH 905 0
DWIDTH 8 0
BBX 8 11 0 -1
BITMAP
02555440
04799840
13100122
5A500586
5A500586
5A500586
5A500586
57711685
28899773
04866840
00044100
ENDCHAR
STARTCHAR utilde
ENCODING 361
SWIDTH 795 0
DWIDTH 7 0
BBX 7 10 0 -1
BITMAP
04553420
17799710
23202220
59505870
59505870
59505870
49605860
47898750
05868600
00142000
ENDCHAR
STARTCHAR Umacron
ENCODING 362
SWIDTH 905 0
DWIDTH 8 0
BBX 8 9 0 -1
BITMAP
13100122
5A500586
5A500586
5A500586
5A500586
57711685
28899773
04866840
00044100
ENDCHAR
STARTCHAR umacron
ENCODING 363
SWIDTH 795 0
DWIDTH 7 0
BBX 7 8 0 -1
BITMAP
23202220
59505870
59505870
59505870
49605860
47898750
05868600
00142000
ENDCHAR
STARTCHAR Ubreve
ENCODING 364
SWIDTH 905 0
DWIDTH 8 0
BBX 8 11 0 -1
BITMAP
00111100
00178200
13100122
5A500586
5A500586
5A500586
5A500586
57711685
28899773
04866840
00044100
ENDCHAR
STARTCHAR ubreve
ENCODING 365
SWIDTH 795 0
DWIDTH 7 0
BBX 7 10 0 -1
BITMAP
00101000
00486000
23202220
59505870
59505870
59505870
49605860
47898750
05868600
00142000
ENDCHAR
STARTCHAR Uring
ENCODING 366
SWIDTH 905 0
DWIDTH 8 0
BBX 8 12 0 -1
BITMAP
00022000
00176200
00077100
13100122
5A500586
5A500586
5A500586
5A500586
57711685
28899773
04866840
00044100
ENDCHAR
STARTCHAR uring
ENCODING 367
SWIDTH 795 0
DWIDTH 7 0
BBX 7 11 0 -1
BITMAP
00031000
00556000
00485000
23202220
59505870
59505870
59505870
49605860
47898750
05868600
00142000
ENDCHAR
STARTCHAR Uhungarumlaut
ENCODING 368
SWIDTH 905 0
DWIDTH 8 0
BBX 9 12 0 -1
BITMAP
0001300400
0158657630
0041033000
1310012200
5A50058600
5A50058600
5A50058600
5A50058600
5771168500
2889977300
0486684000
0004410000
ENDCHAR
STARTCHAR uhungarumlaut
ENCODING 369
SWIDTH 795 0
DWIDTH 7 0
BBX 8 11 0 -1
BITMAP
00031023
03676685
01400410
23202220
59505870
59505870
59505870
49605860
47898750
05868600
00142000
ENDCHAR
STARTCHAR Uogonek
ENCODING 370
SWIDTH 905 0
DWIDTH 8 0
BBX 8 11 0 -3
BITMAP
13100122
5A500586
5A500586
5A500586
5A500586
57711685
28899773
04897840
003B5100
00463000
00232000
ENDCHAR
STARTCHAR uogonek
ENCODING 371
SWIDTH 794 0
DWIDTH 7 0
BBX 7 10 0 -3
BITMAP
23202220
59505870
59505870
59505870
49605860
47898750
05998600
00892000
00850000
00430000
ENDCHAR
STARTCHAR Ycircumflex
ENCODING 374
SWIDTH 789 0
DWIDTH 7 0
BBX 7 10 0 0
BITMAP
00283000
00575000
22010220
58706850
18758820
05878600
01787200
00786000
00595000
00595000
ENDCHAR
STARTCHAR ycircumflex
ENCODING 375
SWIDTH 733 0
DWIDTH 7 0
BBX 7 9 0 0
BITMAP
00481000
00774000
22011220
47828820
08778500
04788200
00886000
00685000
00685000
ENDCHAR
STARTCHAR Ydieresis
ENCODING 376
SWIDTH 789 0
DWIDTH 7 0
BBX 7 9 0 0
BITMAP
03605400
24504420
58706850
18758820
05878600
01787200
00786000
00595000
00595000
ENDCHAR
STARTCHAR Zacute
ENCODING 377
SWIDTH 854 0
DWIDTH 8 0
BBX 8 11 0 0
BITMAP
00000410
00047730
00024000
34444441
45555573
69977872
00277772
04788500
47786331
68656662
68999993
ENDCHAR
STARTCHAR zacute
ENCODING 378
SWIDTH 714 0
DWIDTH 6 0
BBX 7 10 0 0
BITMAP
00001300
00258500
00041000
35542200
46578710
34777400
01886000
06782000
38775500
68889910
ENDCHAR
STARTCHAR Zdotaccent
ENCODING 379
SWIDTH 854 0
DWIDTH 8 0
BBX 8 10 0 0
BITMAP
00043000
00053000
34487441
45555573
69977872
00277772
04788500
47786331
68656662
68999993
ENDCHAR
STARTCHAR zdotaccent
ENCODING 380
SWIDTH 714 0
DWIDTH 6 0
BBX 7 9 0 0
BITMAP
00240000
00350000
35782200
46578710
34777400
01886000
06782000
38775500
68889910
ENDCHAR
STARTCHAR Zcaron
ENCODING 381
SWIDTH 854 0
DWIDTH 8 0
BBX 8 10 0 0
BITMAP
00458100
00196000
34465441
45555573
69977872
00277772
04788500
47786331
68656662
68999993
ENDCHAR
STARTCHAR zcaron
ENCODING 382
SWIDTH 714 0
DWIDTH 6 0
BBX 7 9 0 0
BITMAP
00864000
00591000
35652200
46578710
34777400
01886000
06782000
38775500
68889910
ENDCHAR
STARTCHAR florin
ENCODING 402
SWIDTH 388 0
DWIDTH 4 0
BBX 4 9 0 -1
BITMAP
0251
0881
1950
5981
3961
1950
1950
7740
3400
ENDCHAR
STARTCHAR uni01C4
ENCODING 452
SWIDTH 1740 0
DWIDTH 16 0
BBX 16 10 0 0
BITMAP
0000000000458100
0000000000196000
2444410034465441
5755685045555573
5989978369977872
5950078500277772
595005A604788500
5963477547786331
5866688168656662
6999972068999993
ENDCHAR
STARTCHAR uni01C5
ENCODING 453
SWIDTH 1601 0
DWIDTH 14 0
BBX 15 9 0 0
BITMAP
0000000000864000
2444410000591000
5755685035652200
5989978346578710
5950078534777400
595005A601886000
5963477506782000
5866688138775500
6999972068889910
ENDCHAR
STARTCHAR Scommaaccent
ENCODING 536
SWIDTH 682 0
DWIDTH 6 0
BBX 6 12 0 -4
BITMAP
035551
378976
596540
597650
377875
024687
159886
486683
016610
007700
005600
004200
ENDCHAR
STARTCHAR scommaaccent
ENCODING 537
SWIDTH 683 0
DWIDTH 6 0
BBX 6 11 0 -4
BITMAP
024540
477776
593240
579962
045586
165577
488883
004400
007700
005600
004200
ENDCHAR
STARTCHAR uni021A
ENCODING 538
SWIDTH 591 0
DWIDTH 5 0
BBX 5 12 0 -4
BITMAP
344440
455550
38A940
058600
058600
058600
058600
058600
013200
027500
016500
015000
ENDCHAR
STARTCHAR uni021B
ENCODING 539
SWIDTH 588 0
DWIDTH 5 0
BBX 5 11 0 -4
BITMAP
355550
466660
368840
058700
058700
058700
058700
013200
027500
016500
015000
ENDCHAR
STARTCHAR uni0237
ENCODING 567
SWIDTH 393 0
DWIDTH 4 0
BBX 4 8 0 -1
BITMAP
0321
1872
1872
1872
1872
5791
5770
7610
ENDCHAR
STARTCHAR circumflex
ENCODING 710
SWIDTH 376 0
DWIDTH 3 0
BBX 3 3 0 6
BITMAP
1840
5770
1120
ENDCHAR
STARTCHAR caron
ENCODING 711
SWIDTH 362 0
DWIDTH 3 0
BBX 3 3 0 6
BITMAP
5760
3850
0210
ENDCHAR
STARTCHAR breve
ENCODING 728
SWIDTH 360 0
DWIDTH 3 0
BBX 3 2 0 7
BITMAP
1010
4860
ENDCHAR
STARTCHAR dotaccent
ENCODING 729
SWIDTH 255 0
DWIDTH 2 0
BBX 2 3 0 5
BITMAP
34
35
34
ENDCHAR
STARTCHAR ring
ENCODING 730
SWIDTH 330 0
DWIDTH 3 0
BBX 3 3 0 7
BITMAP
0300
5550
4840
ENDCHAR
STARTCHAR ogonek
ENCODING 731
SWIDTH 250 0
DWIDTH 2 0
BBX 2 4 0 -3
BITMAP
04
56
68
35
ENDCHAR
STARTCHAR tilde
ENCODING 732
SWIDTH 665 0
DWIDTH 6 0
BBX 6 2 0 5
BITMAP
255543
579984
ENDCHAR
STARTCHAR hungarumlaut
ENCODING 733
SWIDTH 837 0
DWIDTH 8 0
BBX 8 3 0 6
BITMAP
00220130
36865851
14004100
ENDCHAR
STARTCHAR uni0307
ENCODING 775
SWIDTH 260 0
DWIDTH 2 0
BBX 2 3 0 3
BITMAP
11
58
34
ENDCHAR
STARTCHAR uni030F
ENCODING 783
SWIDTH 554 0
DWIDTH 5 0
BBX 5 4 0 6
BITMAP
433400
462800
082640
022220
ENDCHAR
STARTCHAR uni0311
ENCODING 785
SWIDTH 375 0
DWIDTH 3 0
BBX 3 2 0 7
BITMAP
0100
4770
ENDCHAR
STARTCHAR uni0326
ENCODING 806
SWIDTH 274 0
DWIDTH 2 0
BBX 2 4 0 -4
BITMAP
23
49
38
33
ENDCHAR
STARTCHAR Omega
ENCODING 937
SWIDTH 92 0
DWIDTH 1 0
BBX 1 1 0 0
BITMAP
00
ENDCHAR
STARTCHAR uni00B5.dup2
ENCODING 956
SWIDTH 802 0
DWIDTH 7 0
BBX 7 8 0 -1
BITMAP
23202230
59505680
59505680
59505680
59505770
59698850
59668600
49542000
ENDCHAR
STARTCHAR pi
ENCODING 960
SWIDTH 92 0
DWIDTH 1 0
BBX 1 1 0 0
BITMAP
00
ENDCHAR
STARTCHAR endash
ENCODING 8211
SWIDTH 473 0
DWIDTH 4 0
BBX 4 3 0 2
BITMAP
3554
4776
1222
ENDCHAR
STARTCHAR emdash
ENCODING 8212
SWIDTH 615 0
DWIDTH 6 0
BBX 6 3 0 2
BITMAP
355551
477771
122220
ENDCHAR
STARTCHAR quoteleft
ENCODING 8216
SWIDTH 254 0
DWIDTH 2 0
BBX 2 4 0 4
BITMAP
03
56
58
35
ENDCHAR
STARTCHAR quoteright
ENCODING 8217
SWIDTH 251 0
DWIDTH 2 0
BBX 2 4 0 4
BITMAP
13
59
38
33
ENDCHAR
STARTCHAR quotesinglbase
ENCODING 8218
SWIDTH 252 0
DWIDTH 2 0
BBX 2 4 0 -2
BITMAP
35
39
47
21
ENDCHAR
STARTCHAR quotedblleft
ENCODING 8220
SWIDTH 535 0
DWIDTH 5 0
BBX 5 4 0 4
BITMAP
030120
561820
582830
351430
ENDCHAR
STARTCHAR quotedblright
ENCODING 8221
SWIDTH 532 0
DWIDTH 5 0
BBX 5 4 0 4
BITMAP
130210
592850
380650
330510
ENDCHAR
STARTCHAR quotedblbase
ENCODING 8222
SWIDTH 533 0
DWIDTH 5 0
BBX 5 4 0 -2
BITMAP
351530
391750
471740
210300
ENDCHAR
STARTCHAR dagger
ENCODING 8224
SWIDTH 636 0
DWIDTH 6 0
BBX 6 8 0 0
BITMAP
012300
037900
597973
587973
037900
037900
037900
037900
ENDCHAR
STARTCHAR daggerdbl
ENCODING 8225
SWIDTH 648 0
DWIDTH 6 0
BBX 6 8 0 0
BITMAP
012200
028810
698894
478863
028810
6A88A5
368863
028810
ENDCHAR
STARTCHAR bullet
ENCODING 8226
SWIDTH 501 0
DWIDTH 5 0
BBX 5 5 0 1
BITMAP
001000
389600
550820
563810
166400
ENDCHAR
STARTCHAR ellipsis
ENCODING 8230
SWIDTH 676 0
DWIDTH 6 0
BBX 6 2 0 0
BITMAP
344443
697887
ENDCHAR
STARTCHAR perthousand
ENCODING 8240
SWIDTH 447 0
DWIDTH 4 0
BBX 4 9 0 -1
BITMAP
0022
0095
0465
0582
0690
0950
4650
5820
5800
ENDCHAR
STARTCHAR guilsinglleft
ENCODING 8249
SWIDTH 465 0
DWIDTH 4 0
BBX 4 5 0 1
BITMAP
0014
3595
4874
6767
0155
ENDCHAR
STARTCHAR guilsinglright
ENCODING 8250
SWIDTH 465 0
DWIDTH 4 0
BBX 4 5 0 1
BITMAP
3100
4864
3695
5777
4520
ENDCHAR
STARTCHAR fraction
ENCODING 8260
SWIDTH 447 0
DWIDTH 4 0
BBX 4 9 0 -1
BITMAP
0022
0095
0465
0582
0690
0950
4650
5820
5800
ENDCHAR
STARTCHAR uni2074
ENCODING 8308
SWIDTH 528 0
DWIDTH 5 0
BBX 5 7 0 1
BITMAP
012100
068300
187000
564800
799950
355720
000500
ENDCHAR
STARTCHAR Euro
ENCODING 8364
SWIDTH 781 0
DWIDTH 7 0
BBX 7 9 0 -1
BITMAP
00045540
01779940
06786520
39674100
48855200
09760000
05779920
00586660
00014410
ENDCHAR
STARTCHAR trademark
ENCODING 8482
SWIDTH 1503 0
DWIDTH 14 0
BBX 14 7 0 1
BITMAP
34444121000231
45555588002892
36A84567506872
02750558838782
02750568778782
02750564786582
00100110010010
ENDCHAR
STARTCHAR partialdiff
ENCODING 8706
SWIDTH 108 0
DWIDTH 1 0
BBX 1 1 0 0
BITMAP
00
ENDCHAR
STARTCHAR uni2206
ENCODING 8710
SWIDTH 108 0
DWIDTH 1 0
BBX 1 1 0 0
BITMAP
00
ENDCHAR
STARTCHAR product
ENCODING 8719
SWIDTH 521 0
DWIDTH 5 0
BBX 5 7 0 0
BITMAP
022100
088500
377800
586640
577730
287700
068500
ENDCHAR
STARTCHAR summation
ENCODING 8721
SWIDTH 108 0
DWIDTH 1 0
BBX 1 1 0 0
BITMAP
00
ENDCHAR
STARTCHAR minus
ENCODING 8722
SWIDTH 555 0
DWIDTH 5 0
BBX 5 2 0 3
BITMAP
466640
588850
ENDCHAR
STARTCHAR radical
ENCODING 8730
SWIDTH 108 0
DWIDTH 1 0
BBX 1 1 0 0
BITMAP
00
ENDCHAR
STARTCHAR infinity
ENCODING 8734
SWIDTH 108 0
DWIDTH 1 0
BBX 1 1 0 0
BITMAP
00
ENDCHAR
STARTCHAR integral
ENCODING 8747
SWIDTH 362 0
DWIDTH 3 0
BBX 3 9 0 -1
BITMAP
0250
1990
3750
3750
3750
3750
3750
8740
4400
ENDCHAR
STARTCHAR approxequal
ENCODING 8776
SWIDTH 665 0
DWIDTH 6 0
BBX 6 4 0 3
BITMAP
255543
579984
255543
579984
ENDCHAR
STARTCHAR notequal
ENCODING 8800
SWIDTH 473 0
DWIDTH 4 0
BBX 4 9 0 -1
BITMAP
0022
0095
38B9
4CE8
29C3
5FE7
7DB6
5820
5800
ENDCHAR
STARTCHAR lessequal
ENCODING 8804
SWIDTH 108 0
DWIDTH 1 0
BBX 1 1 0 0
BITMAP
00
ENDCHAR
STARTCHAR greaterequal
ENCODING 8805
SWIDTH 108 0
DWIDTH 1 0
BBX 1 1 0 0
BITMAP
00
ENDCHAR
STARTCHAR lozenge
ENCODING 9674
SWIDTH 521 0
DWIDTH 5 0
BBX 5 7 0 0
BITMAP
022100
088500
377800
586640
577730
287700
068500
ENDCHAR
STARTCHAR uniF8FF
ENCODING 63743
SWIDTH 108 0
DWIDTH 1 0
BBX 1 1 0 0
BITMAP
00
ENDCHAR
STARTCHAR uniFB01
ENCODING 64257
SWIDTH 962 0
DWIDTH 9 0
BBX 9 7 0 0
BITMAP
2335523210
5976629640
5964419640
5977719640
5977719640
5950009640
5950009640
ENDCHAR
STARTCHAR uniFB02
ENCODING 64258
SWIDTH 1208 0
DWIDTH 11 0
BBX 11 7 0 0
BITMAP
233552321000
597662964000
596441964000
597771964000
597771964000
595000967530
59500096B950
ENDCHAR
STARTCHAR .notdef
ENCODING -1
SWIDTH 108 0
DWIDTH 1 0
BBX 1 1 0 0
BITMAP
00
ENDCHAR
ENDFONT
